<svg xmlns="http://www.w3.org/2000/svg" width="185.272" height="69.3244" viewBox="0 0 185.272 69.3244" class="main-logo">
    <path class="logo-path" d="M66.75,37.87l1.2744-2.5508a.7163.7163,0,0,1,1.0869-.33,10.5281,10.5281,0,0,0,4.2969,1.1328c.9453,0,1.6065-.377,1.6065-1.1807,0-.85-.6612-1.3691-3.1651-2.36-3.6357-1.417-5.3359-3.3536-5.3359-6.2344s2.125-5.5723,6.9424-5.5723a10.8657,10.8657,0,0,1,5.8086,1.4639,1.0044,1.0044,0,0,1,.4248,1.2744l-1.1807,2.4092a.905.905,0,0,1-1.1328.33,11.2024,11.2024,0,0,0-3.92-.9913c-1.1338,0-1.6065.4717-1.6065,1.086,0,.8506.8506,1.1338,2.5977,1.8418,3.6367,1.417,6.376,2.9756,6.376,6.6592,0,3.1162-2.7393,5.7617-7.5088,5.7617a10.6889,10.6889,0,0,1-6.2813-1.7481A.81.81,0,0,1,66.75,37.87Z" transform="translate(0 -8.0234)" fill="#2f2d2e"></path>
    <path class="logo-path" d="M92.0132,20.7744a8.66,8.66,0,0,1,8.831,8.7832,11.6453,11.6453,0,0,1-.0937,1.2754.9136.9136,0,0,1-.8975.8027h-12.09a4.5041,4.5041,0,0,0,4.5332,4.1094A6.5732,6.5732,0,0,0,95.98,34.5645c.4726-.2842.8974-.378,1.2285,0l1.9355,2.2187a.7781.7781,0,0,1-.0468,1.2285A10.1676,10.1676,0,0,1,92.06,40.6094a9.6293,9.6293,0,0,1-9.6807-9.918A9.6755,9.6755,0,0,1,92.0132,20.7744ZM95.3188,28.33a3.5267,3.5267,0,0,0-3.4472-3.211A3.7216,3.7216,0,0,0,88.188,28.33Z" transform="translate(0 -8.0234)" fill="#2f2d2e"></path>
    <path class="logo-path" d="M103.6284,22.1436a.8965.8965,0,0,1,.8965-.8975H106.32a.8664.8664,0,0,1,.8506.6143l.6611,1.8417a6.5925,6.5925,0,0,1,5.336-2.9277c2.22,0,4.2031.708,3.6367,1.8887l-1.7471,3.0693a.8434.8434,0,0,1-1.0869.4258,5.1006,5.1006,0,0,0-1.3691-.2842,3.8259,3.8259,0,0,0-3.3535,1.9365V39.2393c0,.6611-.4248.8974-1.086.8974h-3.6367a.9284.9284,0,0,1-.8965-.8974Z" transform="translate(0 -8.0234)" fill="#2f2d2e"></path>
    <path class="logo-path" d="M118.1235,11.2812a3.225,3.225,0,0,1,3.2119-3.2578,3.2586,3.2586,0,1,1,0,6.5166A3.2252,3.2252,0,0,1,118.1235,11.2812Zm.4258,10.8624a.8965.8965,0,0,1,.8965-.8975h3.92a.8967.8967,0,0,1,.8975.8975V39.2393a.9286.9286,0,0,1-.8975.8974h-3.92a.9284.9284,0,0,1-.8965-.8974Z" transform="translate(0 -8.0234)" fill="#2f2d2e"></path>
    <path class="logo-path" d="M136.9663,20.7744a9.92,9.92,0,1,1-9.6816,9.87A9.8576,9.8576,0,0,1,136.9663,20.7744Zm0,14.7344a4.7057,4.7057,0,0,0,4.5342-4.8643,4.54,4.54,0,1,0-9.0674,0A4.6746,4.6746,0,0,0,136.9663,35.5088Z" transform="translate(0 -8.0234)" fill="#2f2d2e"></path>
    <path class="logo-path" d="M149.3364,22.1436a.8967.8967,0,0,1,.8975-.8975h3.8721a.8967.8967,0,0,1,.8974.8975v9.3037c0,2.5029,1.2754,4.0615,3.4473,4.0615a4.17,4.17,0,0,0,3.7783-3.542V22.1436c0-.7081.2832-.8975,1.0391-.8975h3.5888a.8967.8967,0,0,1,.8975.8975V39.2393a.9286.9286,0,0,1-.8975.8974H165.11a.9631.9631,0,0,1-.8975-.708L163.646,37.87a8.455,8.455,0,0,1-6.3281,2.7393c-5.8565,0-7.9815-4.4873-7.9815-9.3037Z" transform="translate(0 -8.0234)" fill="#2f2d2e"></path>
    <path class="logo-path" d="M171.1987,37.87l1.2744-2.5508a.7164.7164,0,0,1,1.087-.33,10.5279,10.5279,0,0,0,4.2968,1.1328c.9453,0,1.6065-.377,1.6065-1.1807,0-.85-.6612-1.3691-3.1651-2.36-3.6357-1.417-5.3359-3.3536-5.3359-6.2344s2.125-5.5723,6.9424-5.5723a10.8657,10.8657,0,0,1,5.8086,1.4639,1.0044,1.0044,0,0,1,.4248,1.2744l-1.1807,2.4092a.905.905,0,0,1-1.1328.33,11.2024,11.2024,0,0,0-3.92-.9913c-1.1338,0-1.6065.4717-1.6065,1.086,0,.8506.8506,1.1338,2.5977,1.8418,3.6367,1.417,6.376,2.9756,6.376,6.6592,0,3.1162-2.7393,5.7617-7.5088,5.7617a10.6889,10.6889,0,0,1-6.2813-1.7481A.81.81,0,0,1,171.1987,37.87Z" transform="translate(0 -8.0234)" fill="#2f2d2e"></path>
    <path class="logo-path" d="M66.75,74.1094l1.2744-2.5508a.7163.7163,0,0,1,1.0869-.33,10.5281,10.5281,0,0,0,4.2969,1.1328c.9453,0,1.6065-.3769,1.6065-1.1806,0-.85-.6612-1.3692-3.1651-2.3614-3.6357-1.416-5.3359-3.3525-5.3359-6.2334s2.125-5.5722,6.9424-5.5722a10.8668,10.8668,0,0,1,5.8086,1.4638,1.0054,1.0054,0,0,1,.4248,1.2754l-1.1807,2.4082a.905.905,0,0,1-1.1328.33,11.2032,11.2032,0,0,0-3.92-.9912c-1.1338,0-1.6065.4717-1.6065,1.0859,0,.8506.8506,1.1338,2.5977,1.8418,3.6367,1.417,6.376,2.9756,6.376,6.6592,0,3.1162-2.7393,5.7617-7.5088,5.7617a10.69,10.69,0,0,1-6.2813-1.748A.8105.8105,0,0,1,66.75,74.1094Z" transform="translate(0 -8.0234)" fill="#2f2d2e"></path>
    <path class="logo-path" d="M92.0132,57.0137a8.66,8.66,0,0,1,8.831,8.7842,11.6472,11.6472,0,0,1-.0937,1.2744.9136.9136,0,0,1-.8975.8027h-12.09a4.5042,4.5042,0,0,0,4.5332,4.1094A6.5725,6.5725,0,0,0,95.98,70.8037c.4726-.2842.8974-.3779,1.2285,0l1.9355,2.2188a.7781.7781,0,0,1-.0468,1.2285A10.168,10.168,0,0,1,92.06,76.8486a9.921,9.921,0,0,1-.0469-19.8349Zm3.3056,7.5556a3.5266,3.5266,0,0,0-3.4472-3.2109,3.7208,3.7208,0,0,0-3.6836,3.2109Z" transform="translate(0 -8.0234)" fill="#2f2d2e"></path>
    <path class="logo-path" d="M111.8452,57.0137a8.66,8.66,0,0,1,8.8311,8.7842,11.6474,11.6474,0,0,1-.0938,1.2744.9135.9135,0,0,1-.8974.8027h-12.09a4.5043,4.5043,0,0,0,4.5332,4.1094,6.5725,6.5725,0,0,0,3.6836-1.1807c.4727-.2842.8975-.3779,1.2285,0l1.9356,2.2188a.7781.7781,0,0,1-.0469,1.2285,10.168,10.168,0,0,1-7.0371,2.5976,9.921,9.921,0,0,1-.0469-19.8349Zm3.3057,7.5556a3.5267,3.5267,0,0,0-3.4473-3.2109,3.7208,3.7208,0,0,0-3.6836,3.2109Z" transform="translate(0 -8.0234)" fill="#2f2d2e"></path>
    <path class="logo-path" d="M131.394,57.0137a11.3657,11.3657,0,0,1,4.2032.85V44.2148a.9293.9293,0,0,1,.8974-.8974h4.0137a.9293.9293,0,0,1,.8975.8974V75.4785a.9286.9286,0,0,1-.8975.8975h-1.8418c-.4248,0-.7549-.378-.8975-.8975l-.4716-1.4639a8.2877,8.2877,0,0,1-6.1866,2.834c-5.1474,0-9.0673-4.4873-9.0673-9.9179C122.0435,61.4053,125.7739,57.0137,131.394,57.0137Zm.4248,14.7343a4.1139,4.1139,0,0,0,3.9668-3.07V63.2a6.1026,6.1026,0,0,0-3.6835-1.0869,4.6408,4.6408,0,0,0-4.5811,4.8174C127.521,69.5752,129.3159,71.748,131.8188,71.748Z" transform="translate(0 -8.0234)" fill="#2f2d2e"></path>
    <path class="logo-path" d="M144.8521,74.1094l1.2744-2.5508a.7163.7163,0,0,1,1.0869-.33,10.5281,10.5281,0,0,0,4.2969,1.1328c.9453,0,1.6064-.3769,1.6064-1.1806,0-.85-.6611-1.3692-3.165-2.3614-3.6358-1.416-5.336-3.3525-5.336-6.2334s2.125-5.5722,6.9424-5.5722a10.8668,10.8668,0,0,1,5.8086,1.4638,1.0054,1.0054,0,0,1,.4248,1.2754l-1.1807,2.4082a.905.905,0,0,1-1.1328.33,11.2025,11.2025,0,0,0-3.92-.9912c-1.1338,0-1.6064.4717-1.6064,1.0859,0,.8506.8505,1.1338,2.5976,1.8418,3.6367,1.417,6.376,2.9756,6.376,6.6592,0,3.1162-2.7393,5.7617-7.5088,5.7617a10.6894,10.6894,0,0,1-6.2812-1.748A.81.81,0,0,1,144.8521,74.1094Z" transform="translate(0 -8.0234)" fill="#2f2d2e"></path>
    <circle cx="121.4351" cy="3.316" r="3.3119" fill="#af1f24"></circle>
    <path class="logo-path" d="M48.8036,28.2358q-7.4532-7.503-20.4-7.503-13,0-20.4534,7.503T.5,48.792q0,13.0464,7.45,20.5561t20.4534,7.5q12.93,0,20.4-7.5t7.45-20.5561Q56.2536,35.7321,48.8036,28.2358Z" transform="translate(0 -8.0234)" fill="#2f2d2e" stroke="#2f2d2e" stroke-dashoffset="540.77" stroke-dasharray="540.77"></path>
    <path class="logo-path" d="M37.3187,65.9563q-2.9574,5.7426-8.9154,5.7425t-8.9519-5.7425q-2.9839-5.7391-2.9839-17.1776t2.9839-17.1975q2.984-5.7193,8.9519-5.7193t8.9154,5.7193q2.9541,5.7291,2.9574,17.1975T37.3187,65.9563Z" transform="translate(0 -8.0234)" fill="#af1f24" stroke="#000" stroke-dashoffset="347.799" stroke-dasharray="347.799"></path>
    <polygon class="x-symbol x-symbol-delay-1" points="30.93 27.994 30.93 27.994 33.483 25.441 30.93 22.888 28.377 25.441 28.377 25.441 25.824 22.888 23.271 25.441 25.824 27.994 25.824 27.994 23.271 30.547 25.824 33.1 28.377 30.547 28.377 30.547 30.93 33.1 33.483 30.547 30.93 27.994" fill="#fff"></polygon>
    <polygon class="x-symbol x-symbol-delay-2" points="30.93 40.759 30.93 40.759 33.483 38.206 30.93 35.653 28.377 38.206 28.377 38.206 25.824 35.653 23.271 38.206 25.824 40.759 25.824 40.759 23.271 43.312 25.824 45.861 28.377 43.308 28.377 43.312 30.93 45.861 33.483 43.308 30.93 40.759" fill="#fff"></polygon>
    <polygon class="x-symbol x-symbol-delay-3" points="30.93 53.52 30.93 53.52 33.483 50.967 30.93 48.414 28.377 50.967 28.377 50.967 25.824 48.414 23.271 50.967 25.824 53.52 25.824 53.52 23.271 56.073 25.824 58.626 28.377 56.073 28.377 56.073 30.93 58.626 33.483 56.073 30.93 53.52" fill="#fff"></polygon>
</svg>